<?xml version="1.0" encoding="UTF-8"?>
<!-- Generator: visioncortex VTracer 0.6.2 -->
<svg version="1.1" xmlns="http://www.w3.org/2000/svg" width="1280" height="470">
<path d="M0 0 C17.46425663 -0.845769 17.46425663 -0.845769 22.828125 3.05859375 C24.88397282 5.93761641 26.44942342 8.82151134 28 12 C29.2540217 14.05203551 30.52552356 16.09347058 31.8125 18.125 C32.79089844 19.74341797 32.79089844 19.74341797 33.7890625 21.39453125 C36.77174478 26.30174719 39.92117607 31.10172062 43.0559082 35.91259766 C43.49507568 36.58726074 43.93424316 37.26192383 44.38671875 37.95703125 C45.03519775 38.94823975 45.03519775 38.94823975 45.69677734 39.95947266 C46.60160598 41.37621259 47.48050154 42.80971784 48.33837891 44.25537109 C48.98492432 45.34132568 48.98492432 45.34132568 49.64453125 46.44921875 C50.02585205 47.10623779 50.40717285 47.76325684 50.80004883 48.44018555 C52.01019829 50.31401627 52.01019829 50.31401627 55 51 C55.35715088 50.44650879 55.71430176 49.89301758 56.08227539 49.32275391 C67.90539059 31.01759247 67.90539059 31.01759247 73.6640625 22.94140625 C75.20286469 20.70519371 76.52501357 18.36961836 77.83984375 15.99609375 C79.48061026 13.17309143 81.22891775 10.43055741 83 7.6875 C83.66 6.66011719 84.32 5.63273438 85 4.57421875 C87.0439081 1.94348548 87.85257233 0.92026865 91 0 C93.75198719 -0.19134471 96.3774594 -0.2794906 99.125 -0.25 C99.85332031 -0.25773438 100.58164062 -0.26546875 101.33203125 -0.2734375 C106.74657931 -0.25342069 106.74657931 -0.25342069 109 2 C109.24888897 3.914361 109.24888897 3.914361 109.24723816 6.2959137 C109.25143265 7.19753235 109.25562714 8.099151 109.25994873 9.02809143 C109.25432922 10.01985886 109.24870972 11.01162628 109.24291992 12.03344727 C109.24481827 13.07576508 109.24671661 14.11808289 109.24867249 15.19198608 C109.25238855 18.65020174 109.24166487 22.10820914 109.23046875 25.56640625 C109.2292774 27.96011836 109.22882369 30.35383094 109.2290802 32.74754333 C109.22751394 37.76881834 109.21921283 42.79002219 109.20581055 47.8112793 C109.18881137 54.26363573 109.18499638 60.71591394 109.18575573 67.16829014 C109.18548446 72.11204278 109.18001041 77.05577815 109.17275429 81.99952507 C109.16956118 84.37949429 109.16759872 86.75946547 109.16686058 89.13943672 C109.16470431 92.45830785 109.15597587 95.7770942 109.14526367 99.09594727 C109.14571686 100.08973892 109.14617004 101.08353058 109.14663696 102.10743713 C109.14237198 103.00623596 109.13810699 103.90503479 109.13371277 104.83106995 C109.13203692 105.61660531 109.13036108 106.40214067 109.12863445 107.21148014 C109 109 109 109 108 110 C105.33997189 110.15317991 102.7237812 110.23159875 100.0625 110.25 C99.32064453 110.270625 98.57878906 110.29125 97.81445312 110.3125 C95.66015625 110.328125 95.66015625 110.328125 92 110 C89.57079141 106.35618712 89.75714435 104.66387555 89.77294922 100.32543945 C89.77265717 99.652005 89.77236511 98.97857056 89.77206421 98.284729 C89.77345656 96.06078161 89.78901297 93.83717005 89.8046875 91.61328125 C89.80841797 90.07057376 89.81126478 88.5278639 89.81326294 86.9851532 C89.82089671 82.92611136 89.84054294 78.8672128 89.8626709 74.80822754 C89.88313488 70.6657912 89.89226584 66.5233317 89.90234375 62.38085938 C89.92378912 54.25384052 89.95792192 46.12693809 90 38 C89.01 38 88.02 38 87 38 C85.30586655 40.34983076 85.30586655 40.34983076 83.75 43.375 C81.51521861 47.38074023 79.24265657 51.21471959 76.5625 54.9375 C73.93772844 58.60051453 71.52682197 62.33560439 69.1875 66.1875 C64.68009019 73.60834366 59.85671787 80.80449381 55 88 C54.39027344 87.23171875 53.78054688 86.4634375 53.15234375 85.671875 C51.66687777 83.82784826 50.13315894 82.02202547 48.5625 80.25 C45.94438278 77.14048231 44.08930228 73.74128289 42.2109375 70.1484375 C41.02860179 67.93292707 41.02860179 67.93292707 39.3515625 65.8515625 C38 64 38 64 38 62 C37.01 61.505 37.01 61.505 36 61 C34.97784597 59.24317275 33.95804552 57.48399924 33 55.69140625 C31.99165437 53.8257777 31.99165437 53.8257777 30 52 C29.375 49.875 29.375 49.875 29 48 C28.34 48 27.68 48 27 48 C26.74605469 47.44570312 26.49210937 46.89140625 26.23046875 46.3203125 C25.71419922 45.23363281 25.71419922 45.23363281 25.1875 44.125 C24.85105469 43.40570313 24.51460937 42.68640625 24.16796875 41.9453125 C23.00532903 39.69457194 23.00532903 39.69457194 20 38 C19.82619857 44.0206478 19.66028629 50.04147724 19.5 56.0625 C19.47599121 56.95993927 19.45198242 57.85737854 19.42724609 58.78201294 C19.06715154 72.49729801 18.90914972 86.19679586 19.03710938 99.91625977 C19.04548828 101.10791748 19.05386719 102.2995752 19.0625 103.52734375 C19.07410156 104.56624756 19.08570313 105.60515137 19.09765625 106.67553711 C19 109 19 109 18 110 C15.17413249 110.15322744 12.38956118 110.23162755 9.5625 110.25 C8.77294922 110.270625 7.98339844 110.29125 7.16992188 110.3125 C4.87890625 110.328125 4.87890625 110.328125 1 110 C-1.07312898 106.89030652 -1.24976176 106.23308278 -1.24723816 102.71118164 C-1.25143265 101.83632111 -1.25562714 100.96146057 -1.25994873 100.06008911 C-1.25432922 99.10311127 -1.24870972 98.14613342 -1.24291992 97.16015625 C-1.24481827 96.15016571 -1.24671661 95.14017517 -1.24867249 94.09957886 C-1.2523837 90.75380748 -1.24167088 87.40825216 -1.23046875 84.0625 C-1.22927701 81.74226914 -1.22882377 79.42203779 -1.2290802 77.10180664 C-1.22751472 72.2361347 -1.21922018 67.37053626 -1.20581055 62.50488281 C-1.18882067 56.26013712 -1.18499619 50.01547227 -1.18575573 43.77070618 C-1.18548412 38.97871119 -1.1800043 34.18673396 -1.17275429 29.39474487 C-1.16956652 27.09178807 -1.16759996 24.78882925 -1.16686058 22.48587036 C-1.16469818 19.27049311 -1.15595599 16.05520247 -1.14526367 12.83984375 C-1.14571686 11.88286591 -1.14617004 10.92588806 -1.14663696 9.93991089 C-1.14237198 9.06505035 -1.13810699 8.19018982 -1.13371277 7.28881836 C-1.13203692 6.52854843 -1.13036108 5.7682785 -1.12863445 4.98497009 C-1 3 -1 3 0 0 Z " fill="#00B6AD" transform="translate(223,143)"/>
<path d="M0 0 C6.81399694 0.04182812 13.62718758 0.11430916 20.44067383 0.20751953 C22.75570386 0.23564319 25.07082838 0.25690026 27.38598633 0.27099609 C30.72526118 0.29254444 34.0634102 0.33925751 37.40234375 0.390625 C38.42770737 0.39185364 39.45307098 0.39308228 40.50950623 0.39434814 C50.58941592 0.59709677 58.60007833 4.1497868 66 11 C75.62502548 21.39439946 79.38657106 29.70140085 79.2109375 43.91015625 C78.49143284 54.44956705 73.7074318 62.91770025 65.875 69.875 C63.31342035 72.00450598 60.67462106 74.01483681 58 76 C58.53109375 76.85722656 59.0621875 77.71445313 59.609375 78.59765625 C60.32319167 79.75243422 61.03671393 80.90739421 61.75 82.0625 C62.1205249 82.66231689 62.4910498 83.26213379 62.87280273 83.88012695 C64.66140125 86.78595893 66.4219571 89.69549664 68.0625 92.6875 C70.31257378 96.53440034 72.8728158 100.07973883 75.51171875 103.66796875 C76.92843737 105.88786642 77.44474678 107.47021705 78 110 C74.77131254 110.14584064 71.54347635 110.23424106 68.3125 110.3125 C67.40048828 110.35439453 66.48847656 110.39628906 65.54882812 110.43945312 C60.88748169 110.52420488 58.73541611 110.56232199 54.9296875 107.65234375 C53.09575694 105.13161734 52.05167184 102.91232203 51 100 C50.01 99.505 50.01 99.505 49 99 C47.77889364 97.09634126 46.62106459 95.15173816 45.5 93.1875 C44.8915625 92.12917969 44.283125 91.07085937 43.65625 89.98046875 C42.68879597 88.23950785 41.75431458 86.47791849 40.90625 84.67578125 C40.1067218 82.81418753 40.1067218 82.81418753 38 82 C37.01 81.34 36.02 80.68 35 80 C32.71351152 79.75892674 32.71351152 79.75892674 30.3125 79.875 C29.50425781 79.89304687 28.69601562 79.91109375 27.86328125 79.9296875 C27.24839844 79.95289063 26.63351562 79.97609375 26 80 C24.63375903 76.92793215 25.10940276 75.65237552 26.14453125 72.36328125 C26.68890884 71.00829762 27.245325 69.65810029 27.8125 68.3125 C28.08642578 67.62349609 28.36035156 66.93449219 28.64257812 66.22460938 C30.72933094 61.13533453 30.72933094 61.13533453 33 60 C35.08129884 59.844765 37.16531474 59.72495066 39.25 59.625 C45.21497439 59.17221317 49.51585683 58.8196791 53.6484375 54.12890625 C58.27574407 48.20899527 59.86368448 43.51287186 59 36 C57.45513953 30.98120458 55.36440343 26.11743102 51 23 C41.20700187 19.85532863 41.20700187 19.85532863 19 21 C18.67 50.37 18.34 79.74 18 110 C12.06 110 6.12 110 0 110 C-1.1626043 107.67479139 -1.12572785 106.33760705 -1.12698364 103.7487793 C-1.12980347 102.85701996 -1.13262329 101.96526062 -1.13552856 101.04647827 C-1.13350433 100.06563263 -1.1314801 99.08478699 -1.12939453 98.07421875 C-1.13202301 96.52778183 -1.13202301 96.52778183 -1.13470459 94.95010376 C-1.13911962 91.52921891 -1.13618632 88.10838541 -1.1328125 84.6875 C-1.13348564 82.31860341 -1.13445575 79.9497069 -1.13571167 77.58081055 C-1.13718817 72.61083317 -1.13503561 67.64087373 -1.13037109 62.67089844 C-1.12467384 56.2881477 -1.1279531 49.90543901 -1.13394356 43.52268982 C-1.13755045 38.62951336 -1.13640999 33.73634692 -1.13381577 28.84317017 C-1.13314685 26.48914586 -1.13397368 24.13512066 -1.13629532 21.78109741 C-1.13882392 18.49596735 -1.13497826 15.21090616 -1.12939453 11.92578125 C-1.13141876 10.94493561 -1.13344299 9.96408997 -1.13552856 8.95352173 C-1.13270874 8.06176239 -1.12988892 7.17000305 -1.12698364 6.2512207 C-1.12660662 5.47398148 -1.12622959 4.69674225 -1.12584114 3.89595032 C-1 2 -1 2 0 0 Z " fill="#00ECE3" transform="translate(713,143)"/>
<path d="M0 0 C3.08496175 0.02285489 6.16624126 0.10022381 9.25 0.1875 C10.12269531 0.19330078 10.99539063 0.19910156 11.89453125 0.20507812 C18.31644444 0.4256782 18.31644444 0.4256782 21.37109375 2.9921875 C23.47606527 6.87906536 25.18556417 10.83072328 26.8125 14.9375 C29.7242624 22.08331071 32.89683452 28.94509599 36.41796875 35.8125 C38.38042994 39.76649589 40.04107857 43.80589243 41.69921875 47.89453125 C43.14628548 51.34924012 44.71349968 54.73896013 46.3125 58.125 C50.01373621 65.96802277 53.54687221 73.8823495 57.03271484 81.82324219 C57.71828891 83.3660434 58.41799173 84.90260147 59.12744141 86.43457031 C59.49401855 87.23217773 59.8605957 88.02978516 60.23828125 88.8515625 C60.57512939 89.57424316 60.91197754 90.29692383 61.2590332 91.04150391 C62 93 62 93 62 96 C62.66 96 63.32 96 64 96 C64.67305018 97.60149886 65.33822227 99.20631029 66 100.8125 C66.37125 101.70582031 66.7425 102.59914063 67.125 103.51953125 C68 106 68 106 68 109 C68.66 109.33 69.32 109.66 70 110 C69.32453125 110.06058594 68.6490625 110.12117188 67.953125 110.18359375 C67.06109375 110.26738281 66.1690625 110.35117188 65.25 110.4375 C63.92742187 110.55931641 63.92742187 110.55931641 62.578125 110.68359375 C60.05643282 110.93137318 60.05643282 110.93137318 57.890625 111.5703125 C54.51187548 112.33821012 52.13474834 111.28748592 49 110 C44.22681263 104.52487331 41.62103496 97.10827181 38.9765625 90.40625 C37.81996729 87.55639941 36.42975139 84.88003487 35 82.16015625 C34 80 34 80 33.05078125 77.1015625 C31.99668801 73.99022409 30.69508145 71.22821822 29.1875 68.3125 C25.31624762 60.69214641 21.79344873 52.97523749 18.5625 45.0625 C16.01838872 38.88047162 13.0640015 32.93847713 10 27 C8.49500558 29.25749163 7.35430149 31.22801564 6.22827148 33.65771484 C5.89129745 34.38211761 5.55432343 35.10652039 5.20713806 35.85287476 C4.84874344 36.63103546 4.49034882 37.40919617 4.12109375 38.2109375 C3.74896255 39.01608795 3.37683136 39.8212384 2.99342346 40.65078735 C2.20787471 42.35315137 1.4237237 44.05616097 0.64086914 45.75976562 C-0.55595009 48.36076533 -1.76115464 50.9577681 -2.96679688 53.5546875 C-3.72968529 55.21069868 -4.49207174 56.86694121 -5.25390625 58.5234375 C-5.6143251 59.29754974 -5.97474396 60.07166199 -6.34608459 60.86923218 C-8.03407941 64.56410629 -9.45123149 67.93336836 -10 72 C-8.94087402 71.9685791 -8.94087402 71.9685791 -7.86035156 71.93652344 C-4.65704624 71.85330702 -1.45396837 71.80132215 1.75 71.75 C2.86117187 71.71648437 3.97234375 71.68296875 5.1171875 71.6484375 C6.18710937 71.63554687 7.25703125 71.62265625 8.359375 71.609375 C9.83615723 71.5779541 9.83615723 71.5779541 11.34277344 71.54589844 C14.75283745 72.12865469 15.84730526 73.35198171 18 76 C19.703125 78.91015625 19.703125 78.91015625 21.25 82.0625 C21.77078125 83.10535156 22.2915625 84.14820313 22.828125 85.22265625 C24 88 24 88 24 91 C9.48 91.33 -5.04 91.66 -20 92 C-22.64 97.61 -25.28 103.22 -28 109 C-33.85655458 110.67330131 -36.27401567 111.20886436 -41.9375 110.625 C-43.08089844 110.51414062 -44.22429688 110.40328125 -45.40234375 110.2890625 C-46.25957031 110.19367188 -47.11679687 110.09828125 -48 110 C-48.6051721 104.09957199 -46.53814535 100.14604734 -44 95 C-43.351521 93.65131836 -43.351521 93.65131836 -42.68994141 92.27539062 C-41.74382224 90.31065528 -40.79336929 88.34800233 -39.83911133 86.38720703 C-35.04845653 76.54234629 -30.47319084 66.65294353 -26.23486328 56.55834961 C-23.35934742 49.74063657 -20.23174702 43.06615097 -17.02709961 36.39794922 C-14.84254845 31.83513809 -12.83615843 27.26141395 -11.02734375 22.53515625 C-9.60832825 19.03347921 -8.03003562 15.61314051 -6.4375 12.1875 C-6.14407715 11.55231445 -5.8506543 10.91712891 -5.54833984 10.26269531 C-3.8834436 6.71104201 -2.08287392 3.32373497 0 0 Z " fill="#00DCD2" transform="translate(629,143)"/>
<path d="M0 0 C2.94876842 -0.08314755 5.6414537 -0.00275992 8.5625 0.25 C9.35591797 0.30285156 10.14933594 0.35570312 10.96679688 0.41015625 C16.84161146 0.84161146 16.84161146 0.84161146 18 2 C18.10811464 4.06351239 18.14629793 6.13071033 18.15771484 8.19702148 C18.16533592 9.16801033 18.16533592 9.16801033 18.17311096 10.15861511 C18.18383951 11.57019622 18.19244988 12.9817946 18.19923019 14.39340019 C18.21101188 16.63524614 18.23046848 18.8768988 18.25234985 21.1186676 C18.31394863 27.49497927 18.36777664 33.8712774 18.40136719 40.24780273 C18.42245599 44.14597814 18.45788471 48.04381133 18.50212479 51.94178963 C18.51618882 53.42113237 18.5249853 54.90053579 18.52817917 56.37994194 C18.42504773 71.57251573 18.42504773 71.57251573 25.4375 84.5625 C26.01371094 85.20316406 26.58992188 85.84382813 27.18359375 86.50390625 C29.14309079 88.11785757 30.517788 88.601755 33 89 C33 89.66 33 90.32 33 91 C42.7673705 92.42070844 51.78079363 93.5301773 60.171875 87.41796875 C66.8862202 81.79409202 69.6746912 76.72372851 71 68 C71.24897103 63.50736343 71.20995041 59.02937843 71.16015625 54.53125 C71.15495468 53.25576294 71.14975311 51.98027588 71.14439392 50.6661377 C71.12966445 47.29611777 71.10681323 43.92637978 71.07904053 40.55645752 C71.04090908 35.81563548 71.01323558 31.07478564 70.99131775 26.3338623 C70.97916735 23.81730871 70.96167128 21.30077339 70.93800354 18.78430176 C70.90194621 12.4268696 71.14169903 6.30121594 72 0 C77.94 0.33 83.88 0.66 90 1 C91.40870433 3.81740867 91.15069222 6.18756638 91.17700195 9.33886719 C91.18357315 9.98966751 91.19014435 10.64046783 91.19691467 11.31098938 C91.21667647 13.47295249 91.22832622 15.6348455 91.23828125 17.796875 C91.24235678 18.53881355 91.2464323 19.28075211 91.25063133 20.04517365 C91.27151981 23.98405174 91.28580066 27.92289487 91.29516602 31.86181641 C91.30614254 35.89624397 91.34043046 39.93010644 91.38033772 43.9643364 C91.40674486 47.09257897 91.41487968 50.220693 91.41844749 53.34903717 C91.42326398 54.8335266 91.43473342 56.31801226 91.45348549 57.80239105 C91.60661306 70.74464924 90.1796688 83.45374163 82 94 C81.52046875 94.66386719 81.0409375 95.32773438 80.546875 96.01171875 C73.59686061 104.86792641 63.06856954 110.3552728 52 112 C38.51294675 113.08446295 26.90263901 110.52522187 16.35546875 101.81640625 C13.8561563 99.58788314 11.40893179 97.32572171 9 95 C8.25621094 94.31421875 7.51242188 93.6284375 6.74609375 92.921875 C4.4636866 90.40969532 4.44012429 88.30093221 4 85 C3.34 84.67 2.68 84.34 2 84 C-1.21031354 77.08784166 -1.47226287 69.60750548 -1.7890625 62.125 C-1.79164488 59.09507567 -1.79164488 59.09507567 -3 57 C-2.34 57 -1.68 57 -1 57 C-1.0169693 56.33014572 -1.0339386 55.66029144 -1.05142212 54.97013855 C-1.22568736 48.01151291 -1.38560313 41.05266346 -1.53710938 34.09350586 C-1.5955842 31.49478716 -1.65774373 28.8961487 -1.72363281 26.29760742 C-1.81759093 22.56704311 -1.89838563 18.83639293 -1.9765625 15.10546875 C-2.00875885 13.93976852 -2.0409552 12.7740683 -2.0741272 11.57304382 C-2.09429901 10.49214981 -2.11447083 9.4112558 -2.13525391 8.29760742 C-2.15746002 7.34496506 -2.17966614 6.39232269 -2.20254517 5.41081238 C-2 3 -2 3 0 0 Z " fill="#009E98" transform="translate(122,143)"/>
<path d="M0 0 C6.22555982 -0.07461488 12.45085456 -0.1288209 18.67675781 -0.16479492 C20.7910618 -0.17980487 22.90533507 -0.2002192 25.01953125 -0.22631836 C28.07299421 -0.26304633 31.12604257 -0.27980474 34.1796875 -0.29296875 C35.57874832 -0.31619453 35.57874832 -0.31619453 37.006073 -0.33988953 C43.47472095 -0.34151781 48.91515699 0.84543592 55 3 C55.99 3.33 56.98 3.66 58 4 C58 4.66 58 5.32 58 6 C58.73476563 6.25265625 59.46953125 6.5053125 60.2265625 6.765625 C70.03642725 11.13170565 75.25181763 21.48452511 79 31 C81.33405562 42.06970237 79.65100787 51.5224054 74.0625 61.4375 C71.85512789 64.17999263 69.58056141 66.6037644 67 69 C66.13375 69.825 65.2675 70.65 64.375 71.5 C58.07554323 76.63048541 50.11252054 79.80213365 42 80 C40.93007813 80.03867188 39.86015625 80.07734375 38.7578125 80.1171875 C28.77365202 80.31731544 28.77365202 80.31731544 25 78 C29.94117647 64.58823529 29.94117647 64.58823529 33 60 C35.828125 59.59375 35.828125 59.59375 39.25 59.5 C44.24822655 59.22997453 47.7067109 58.75210839 52 56 C52.7425 55.731875 53.485 55.46375 54.25 55.1875 C56.92233257 53.37413147 57.17998085 51.02776301 58 48 C58.495 47.01 58.495 47.01 59 46 C59.58118616 39.26047585 59.27764669 33.94832176 56 28 C55.62875 27.2575 55.2575 26.515 54.875 25.75 C48.66090749 19.95018033 38.88381656 20.47298533 30.9375 20.3125 C29.78572266 20.27833984 28.63394531 20.24417969 27.44726562 20.20898438 C24.6316079 20.12720179 21.81623429 20.05782625 19 20 C19.00222061 21.11277817 19.00444122 22.22555634 19.00672913 23.37205505 C19.02695955 33.8349213 19.04197166 44.29778361 19.05181217 54.76066494 C19.05704125 60.14033762 19.06413935 65.51999458 19.07543945 70.8996582 C19.08626745 76.08674843 19.09227665 81.27382349 19.09487724 86.46092415 C19.09673165 88.4445628 19.10035256 90.42820058 19.10573006 92.41183281 C19.11293932 95.18009136 19.11399099 97.94828638 19.11352539 100.71655273 C19.11712067 101.54517319 19.12071594 102.37379364 19.12442017 103.2275238 C19.11405216 108.88594784 19.11405216 108.88594784 18 110 C16.66956375 110.0983721 15.33406656 110.13078592 14 110.1328125 C13.195625 110.13410156 12.39125 110.13539063 11.5625 110.13671875 C10.716875 110.13285156 9.87125 110.12898438 9 110.125 C8.154375 110.12886719 7.30875 110.13273437 6.4375 110.13671875 C5.633125 110.13542969 4.82875 110.13414062 4 110.1328125 C3.2575 110.13168457 2.515 110.13055664 1.75 110.12939453 C0 110 0 110 -1 109 C-1.0975801 107.61314081 -1.12631636 106.22135763 -1.12698364 104.83106995 C-1.12980347 103.93227112 -1.13262329 103.03347229 -1.13552856 102.10743713 C-1.13350433 101.11364548 -1.1314801 100.11985382 -1.12939453 99.09594727 C-1.13114685 98.05538177 -1.13289917 97.01481628 -1.13470459 95.94271851 C-1.13912578 92.48393106 -1.13618396 89.02519426 -1.1328125 85.56640625 C-1.13348551 83.17366018 -1.13445552 80.78091417 -1.13571167 78.38816833 C-1.13718905 73.36513622 -1.135033 68.34212185 -1.13037109 63.3190918 C-1.12467686 56.86793128 -1.12795064 50.4168124 -1.13394356 43.96565342 C-1.13755071 39.02186263 -1.13640981 34.07808177 -1.13381577 29.1342907 C-1.13314677 26.75514661 -1.13397398 24.37600164 -1.13629532 21.9968586 C-1.13882402 18.67569708 -1.13497798 15.35460369 -1.12939453 12.03344727 C-1.13141876 11.04167984 -1.13344299 10.04991241 -1.13552856 9.02809143 C-1.13270874 8.12647278 -1.12988892 7.22485413 -1.12698364 6.2959137 C-1.12660662 5.51000131 -1.12622959 4.72408892 -1.12584114 3.914361 C-1 2 -1 2 0 0 Z " fill="#00BCB3" transform="translate(343,143)"/>
<path d="M0 0 C0.94681641 -0.020625 1.89363281 -0.04125 2.86914062 -0.0625 C9.21636548 -0.09744687 14.31266251 0.88082525 20.1875 3.25 C21.363125 3.683125 22.53875 4.11625 23.75 4.5625 C27.98935255 6.6436367 31.51591483 9.30319528 35.1875 12.25 C32.36911975 18.30951754 27.27273035 22.11085901 22.1875 26.25 C21.3521875 25.63511719 21.3521875 25.63511719 20.5 25.0078125 C12.76869377 19.54888344 5.71734904 17.15232105 -3.8125 18.25 C-8.25471378 19.39789949 -12.46017425 21.03176728 -15.8125 24.25 C-17.05698656 27.98345969 -17.4503662 31.37724094 -16.8125 35.25 C-12.11388312 42.14130476 -3.30593729 43.8354564 4.3125 46 C15.97436438 49.53724796 26.93958872 54.12985143 34.1875 64.25 C34.69152344 64.71792969 35.19554687 65.18585938 35.71484375 65.66796875 C39.43892356 69.66863804 41.03301258 75.71851291 41.359375 81.06640625 C40.85559673 89.11540904 38.44354859 97.80824351 32.859375 103.875 C22.31018728 112.55096747 11.20122414 114.13539778 -1.94921875 112.97265625 C-14.22726187 111.41753619 -24.54762554 107.5572647 -33.8125 99.25 C-30.30352731 95.06576108 -26.73189465 91.05411834 -22.8125 87.25 C-19.22137126 88.35496269 -15.8390901 89.67005867 -12.4375 91.25 C-3.95482617 95.02478985 4.32330888 96.83632916 13.375 93.42578125 C16.87777699 91.57952588 18.81987461 89.93722531 20.1875 86.25 C20.25348329 83.9795629 20.25348329 83.9795629 19.875 81.6875 C19.77574219 80.92308594 19.67648437 80.15867187 19.57421875 79.37109375 C19.2066013 77.07240377 19.2066013 77.07240377 18.1875 74.25 C11.75821519 70.09656822 3.84738439 68.13027255 -3.375 65.8125 C-15.62200046 61.83885294 -27.95107494 56.19562057 -35.25 44.9375 C-38.52912913 38.30368578 -39.71655258 30.65500249 -37.6953125 23.50390625 C-34.02815106 14.14128611 -28.26810299 7.5233618 -19.6875 2.375 C-13.3131215 -0.11932202 -6.75041518 0.03631696 0 0 Z " fill="#00C6BF" transform="translate(467.8125,141.75)"/>
<path d="M0 0 C1.42725284 0.0088174 2.85447619 0.02340808 4.28163147 0.0422821 C5.05885056 0.04867706 5.83606964 0.05507202 6.63684082 0.06166077 C9.21912435 0.08453745 11.80124518 0.11511681 14.38343811 0.14653015 C16.17083568 0.16574879 17.95823501 0.18480501 19.74563599 0.20370483 C23.49759497 0.24475685 27.24947798 0.28999157 31.00135803 0.33769226 C35.81801258 0.39828295 40.63469292 0.4451867 45.4515295 0.48852253 C49.14468449 0.5238249 52.83769232 0.56807164 56.53071785 0.61487389 C58.30695187 0.63597118 60.08322694 0.6538579 61.85952568 0.6685276 C64.34029212 0.6900212 66.82058754 0.72392746 69.30116272 0.7610321 C70.41010895 0.76662895 70.41010895 0.76662895 71.54145813 0.77233887 C76.62777338 0.86742793 76.62777338 0.86742793 78.85609436 3.0957489 C79.00166593 6.01300308 79.04208403 8.80889695 78.98109436 11.7207489 C78.93984436 14.4844989 78.89859436 17.2482489 78.85609436 20.0957489 C68.29609436 20.0957489 57.73609436 20.0957489 46.85609436 20.0957489 C46.86133118 22.7865863 46.86656799 25.47742371 46.8719635 28.24980164 C46.88849846 37.11866838 46.89956521 45.98753579 46.90790653 54.85641384 C46.91313561 60.23608652 46.92023371 65.61574348 46.93153381 70.9954071 C46.94236181 76.18249734 46.94837101 81.36957239 46.9509716 86.55667305 C46.95282601 88.5403117 46.95644692 90.52394948 46.96182442 92.50758171 C46.96903368 95.27584026 46.97008535 98.04403529 46.96961975 100.81230164 C46.97321503 101.64092209 46.9768103 102.46954254 46.98051453 103.32327271 C46.97014652 108.98169674 46.97014652 108.98169674 45.85609436 110.0957489 C43.01274388 110.19561865 40.19912273 110.23452771 37.35609436 110.2207489 C36.15919983 110.22654968 36.15919983 110.22654968 34.93812561 110.23246765 C28.98270203 110.22235658 28.98270203 110.22235658 27.85609436 109.0957489 C27.73090613 106.32718023 27.67001231 103.58233764 27.65077209 100.81230164 C27.6408725 99.94408783 27.6309729 99.07587402 27.62077332 98.18135071 C27.58906068 95.29737623 27.56436248 92.41338525 27.53968811 89.52934265 C27.519127 87.53536539 27.49813077 85.54139258 27.47671509 83.54742432 C27.42140729 78.28834114 27.37203656 73.02921807 27.3238678 67.77006531 C27.27371618 62.40788708 27.2179971 57.04576709 27.16273499 51.68363953 C27.05504696 41.15439046 26.95413998 30.62509218 26.85609436 20.0957489 C16.95609436 20.0957489 7.05609436 20.0957489 -3.14390564 20.0957489 C-4.79229508 16.79897002 -4.28663302 13.15258846 -4.26890564 9.5332489 C-4.27277283 8.73983093 -4.27664001 7.94641296 -4.28062439 7.12895203 C-4.26867059 0.13000407 -4.26867059 0.13000407 0 0 Z " fill="#00C8C0" transform="translate(512.1439056396484,142.9042510986328)"/>
<path d="M0 0 C1.42725284 0.0088174 2.85447619 0.02340808 4.28163147 0.0422821 C5.05885056 0.04867706 5.83606964 0.05507202 6.63684082 0.06166077 C9.21912435 0.08453745 11.80124518 0.11511681 14.38343811 0.14653015 C16.17083568 0.16574879 17.95823501 0.18480501 19.74563599 0.20370483 C23.49759497 0.24475685 27.24947798 0.28999157 31.00135803 0.33769226 C35.81801258 0.39828295 40.63469292 0.4451867 45.4515295 0.48852253 C49.14468449 0.5238249 52.83769232 0.56807164 56.53071785 0.61487389 C58.30695187 0.63597118 60.08322694 0.6538579 61.85952568 0.6685276 C64.34029212 0.6900212 66.82058754 0.72392746 69.30116272 0.7610321 C70.41010895 0.76662895 70.41010895 0.76662895 71.54145813 0.77233887 C76.62777338 0.86742793 76.62777338 0.86742793 78.85609436 3.0957489 C79.00166593 6.01300308 79.04208403 8.80889695 78.98109436 11.7207489 C78.93984436 14.4844989 78.89859436 17.2482489 78.85609436 20.0957489 C68.29609436 20.0957489 57.73609436 20.0957489 46.85609436 20.0957489 C46.85609436 49.7957489 46.85609436 79.4957489 46.85609436 110.0957489 C40.91609436 110.0957489 34.97609436 110.0957489 28.85609436 110.0957489 C26.81909817 108.05875271 27.68113551 103.81177584 27.66664124 101.01176453 C27.65834793 100.16466415 27.65005463 99.31756378 27.64151001 98.4447937 C27.62407 96.59939473 27.60891411 94.75397313 27.59573364 92.90853882 C27.57477893 89.99289535 27.54775112 87.07736584 27.51905823 84.16178894 C27.44907379 76.91992302 27.3897653 69.67797628 27.33003235 62.4360199 C27.27919253 56.32113884 27.22439228 50.20631872 27.16421509 44.09152222 C27.13753734 41.21034021 27.116785 38.32915288 27.09620667 35.44792175 C27.0796109 33.69185616 27.06273971 31.93579313 27.04554749 30.17973328 C27.04136307 29.37138535 27.03717865 28.56303741 27.03286743 27.73019409 C27.32862336 24.11411113 27.32862336 24.11411113 25.85609436 21.0957489 C23.71222779 20.93716048 21.56342598 20.84445592 19.41468811 20.77934265 C18.10951233 20.73744812 16.80433655 20.69555359 15.45960999 20.65238953 C14.07094106 20.61257282 12.68226914 20.57286065 11.29359436 20.5332489 C9.90100253 20.49006901 8.50842408 20.4464549 7.11585999 20.40238953 C3.69604635 20.29589014 0.27615673 20.19387967 -3.14390564 20.0957489 C-4.39064898 16.35551888 -4.28943319 12.8641403 -4.26890564 8.9707489 C-4.27277283 8.22953796 -4.27664001 7.48832703 -4.28062439 6.72465515 C-4.26856835 0.13000095 -4.26856835 0.13000095 0 0 Z " fill="#00F7ED" transform="translate(799.1439056396484,142.9042510986328)"/>
<path d="M0 0 C17.46425663 -0.845769 17.46425663 -0.845769 22.828125 3.05859375 C24.88397282 5.93761641 26.44942342 8.82151134 28 12 C29.2540217 14.05203551 30.52552356 16.09347058 31.8125 18.125 C32.79089844 19.74341797 32.79089844 19.74341797 33.7890625 21.39453125 C36.77174478 26.30174719 39.92117607 31.10172062 43.0559082 35.91259766 C43.49507568 36.58726074 43.93424316 37.26192383 44.38671875 37.95703125 C44.81815186 38.61977051 45.24958496 39.28250977 45.6940918 39.96533203 C47.45969909 42.71623336 49.16775127 45.50151901 50.8671875 48.29370117 C52.32320478 50.4868272 54.03676791 52.25490481 56 54 C55.67 54.99 55.34 55.98 55 57 C51.65626525 56.44271087 48.96687001 55.64826111 46 54 C44.66113378 55.12830857 44.66113378 55.12830857 44.6875 58.0625 C45.0717039 62.90346914 46.59310681 65.86829735 49 70 C49.57814453 71.09634766 49.57814453 71.09634766 50.16796875 72.21484375 C52.26262838 75.96353881 53.29681537 77.68157677 57.3125 79.5 C58.199375 79.665 59.08625 79.83 60 80 C58.35 82.64 56.7 85.28 55 88 C54.443125 87.29875 53.88625 86.5975 53.3125 85.875 C51.77437638 83.9627382 50.19031792 82.08651253 48.5625 80.25 C45.94438278 77.14048231 44.08930228 73.74128289 42.2109375 70.1484375 C41.02860179 67.93292707 41.02860179 67.93292707 39.3515625 65.8515625 C38 64 38 64 38 62 C37.01 61.505 37.01 61.505 36 61 C34.97784597 59.24317275 33.95804552 57.48399924 33 55.69140625 C31.99165437 53.8257777 31.99165437 53.8257777 30 52 C29.375 49.875 29.375 49.875 29 48 C28.34 48 27.68 48 27 48 C26.74605469 47.44570312 26.49210937 46.89140625 26.23046875 46.3203125 C25.71419922 45.23363281 25.71419922 45.23363281 25.1875 44.125 C24.85105469 43.40570313 24.51460937 42.68640625 24.16796875 41.9453125 C23.00532903 39.69457194 23.00532903 39.69457194 20 38 C19.82619857 44.0206478 19.66028629 50.04147724 19.5 56.0625 C19.47599121 56.95993927 19.45198242 57.85737854 19.42724609 58.78201294 C19.06715154 72.49729801 18.90914972 86.19679586 19.03710938 99.91625977 C19.04548828 101.10791748 19.05386719 102.2995752 19.0625 103.52734375 C19.07410156 104.56624756 19.08570313 105.60515137 19.09765625 106.67553711 C19 109 19 109 18 110 C15.17413249 110.15322744 12.38956118 110.23162755 9.5625 110.25 C8.77294922 110.270625 7.98339844 110.29125 7.16992188 110.3125 C4.87890625 110.328125 4.87890625 110.328125 1 110 C-1.07312898 106.89030652 -1.24976176 106.23308278 -1.24723816 102.71118164 C-1.25143265 101.83632111 -1.25562714 100.96146057 -1.25994873 100.06008911 C-1.25432922 99.10311127 -1.24870972 98.14613342 -1.24291992 97.16015625 C-1.24481827 96.15016571 -1.24671661 95.14017517 -1.24867249 94.09957886 C-1.2523837 90.75380748 -1.24167088 87.40825216 -1.23046875 84.0625 C-1.22927701 81.74226914 -1.22882377 79.42203779 -1.2290802 77.10180664 C-1.22751472 72.2361347 -1.21922018 67.37053626 -1.20581055 62.50488281 C-1.18882067 56.26013712 -1.18499619 50.01547227 -1.18575573 43.77070618 C-1.18548412 38.97871119 -1.1800043 34.18673396 -1.17275429 29.39474487 C-1.16956652 27.09178807 -1.16759996 24.78882925 -1.16686058 22.48587036 C-1.16469818 19.27049311 -1.15595599 16.05520247 -1.14526367 12.83984375 C-1.14571686 11.88286591 -1.14617004 10.92588806 -1.14663696 9.93991089 C-1.14237198 9.06505035 -1.13810699 8.19018982 -1.13371277 7.28881836 C-1.13203692 6.52854843 -1.13036108 5.7682785 -1.12863445 4.98497009 C-1 3 -1 3 0 0 Z " fill="#00AAA3" transform="translate(223,143)"/>
<path d="M0 0 C5.94 0 11.88 0 18 0 C19.46102672 2.92205345 19.14347999 5.50620582 19.16113281 8.76953125 C19.16858017 9.81389091 19.16858017 9.81389091 19.17617798 10.87934875 C19.19081871 13.19040917 19.19760796 15.50140075 19.203125 17.8125 C19.2088789 19.42236329 19.21463661 21.03222658 19.22039795 22.64208984 C19.23091611 26.02490559 19.23675211 29.40769754 19.24023438 32.79052734 C19.24569313 37.10324351 19.26966097 41.4156398 19.29820633 45.72825623 C19.31693925 49.05878579 19.32204414 52.38924034 19.32357025 55.71981812 C19.32657796 57.30807222 19.33454216 58.8963256 19.34775543 60.48452759 C19.46212572 75.30036181 17.28375827 86.95038483 6.9296875 98.26171875 C-4.23723253 108.76822953 -16.04290184 112.63966159 -31.08984375 112.24609375 C-41.77050953 111.57388402 -50.85863227 107.07285048 -58 99 C-56.4373676 95.16444775 -53.93550032 92.86390275 -51 90 C-49.97186389 88.68824014 -48.95915568 87.3630107 -48 86 C-45.03 86.99 -42.06 87.98 -39 89 C-39 89.66 -39 90.32 -39 91 C-23.38568002 92.66124183 -23.38568002 92.66124183 -9.6875 85.8125 C-3.3445752 79.82336384 -1.25427627 73.30843706 -0.84178162 64.69692993 C-0.82623734 63.50224091 -0.81069305 62.30755188 -0.79467773 61.07666016 C-0.78477814 60.4125412 -0.77487854 59.74842224 -0.76467896 59.06417847 C-0.73332413 56.88917493 -0.70841058 54.71414961 -0.68359375 52.5390625 C-0.66300169 51.02305565 -0.64200465 49.50705424 -0.62062073 47.99105835 C-0.56563249 44.01601599 -0.51612148 40.04092383 -0.46777344 36.0657959 C-0.41738781 32.00345468 -0.36179112 27.94118508 -0.30664062 23.87890625 C-0.19934373 15.91932996 -0.09831854 7.95969226 0 0 Z " fill="#009E98" transform="translate(93,143)"/>
<path d="M0 0 C5.94 0.33 11.88 0.66 18 1 C19.40870433 3.81740867 19.15069222 6.18756638 19.17700195 9.33886719 C19.18685875 10.31506767 19.18685875 10.31506767 19.19691467 11.31098938 C19.21667647 13.47295249 19.22832622 15.6348455 19.23828125 17.796875 C19.24235678 18.53881355 19.2464323 19.28075211 19.25063133 20.04517365 C19.27151981 23.98405174 19.28580066 27.92289487 19.29516602 31.86181641 C19.30614254 35.89624397 19.34043046 39.93010644 19.38033772 43.9643364 C19.40674486 47.09257897 19.41487968 50.220693 19.41844749 53.34903717 C19.42326398 54.8335266 19.43473342 56.31801226 19.45348549 57.80239105 C19.60661306 70.74464924 18.1796688 83.45374163 10 94 C9.52046875 94.66386719 9.0409375 95.32773438 8.546875 96.01171875 C3.85155907 101.99482764 -2.01559332 106.02036971 -9 109 C-12.5625 109 -12.5625 109 -16 108 C-17.95579186 107.80576964 -19.91464604 107.64092403 -21.875 107.5 C-26.8820059 107.1179941 -26.8820059 107.1179941 -28 106 C-28.375 103.125 -28.375 103.125 -28 100 C-25.8125 98.3125 -25.8125 98.3125 -23 97 C-20.23558031 95.59240659 -20.23558031 95.59240659 -18 94 C-18 93.01 -18 92.02 -18 91 C-16.989375 90.505 -15.97875 90.01 -14.9375 89.5 C-8.72388565 85.88274378 -4.2834745 81.07037547 -2.31298828 74.07666016 C-0.64751928 67.47797084 -0.63759957 61.10711537 -0.7421875 54.3359375 C-0.74880402 53.06328033 -0.75542053 51.79062317 -0.76223755 50.47940063 C-0.78155268 47.1256927 -0.81332525 43.77262917 -0.85229492 40.41912842 C-0.90475774 35.69592365 -0.93672978 30.97257176 -0.96633911 26.24917603 C-0.9831571 23.74373236 -1.00616389 21.23832002 -1.03634644 18.73300171 C-1.09041308 12.38901528 -0.85921244 6.28775858 0 0 Z " fill="#00AAA3" transform="translate(194,143)"/>
<path d="M0 0 C5.51264308 0.26890942 9.81476979 2.52199619 14 6 C15.25 8.6875 15.25 8.6875 16 11 C16.639375 11.28875 17.27875 11.5775 17.9375 11.875 C21.27645528 13.69624834 21.78114208 16.5175488 23 20 C25.6047685 30.89266828 23.53643407 40.72568149 18.0625 50.4375 C15.85512789 53.17999263 13.58056141 55.6037644 11 58 C10.13375 58.825 9.2675 59.65 8.375 60.5 C2.07554323 65.63048541 -5.88747946 68.80213365 -14 69 C-15.60488281 69.05800781 -15.60488281 69.05800781 -17.2421875 69.1171875 C-27.22634798 69.31731544 -27.22634798 69.31731544 -31 67 C-26.05882353 53.58823529 -26.05882353 53.58823529 -23 49 C-20.171875 48.59375 -20.171875 48.59375 -16.75 48.5 C-11.75177345 48.22997453 -8.2932891 47.75210839 -4 45 C-3.2575 44.731875 -2.515 44.46375 -1.75 44.1875 C0.92233257 42.37413147 1.17998085 40.02776301 2 37 C2.495 36.01 2.495 36.01 3 35 C3.44441457 29.92341823 3.69014626 24.96195806 1.5625 20.25 C-1.04884083 14.34663709 -0.96787363 7.36905333 -1 1 C-0.67 0.67 -0.34 0.34 0 0 Z " fill="#00C4BC" transform="translate(399,154)"/>
<path d="M0 0 C3.37997037 2.71822918 4.64556729 6.41693922 6.25 10.3125 C8.56612465 15.77979774 10.9922809 21.14637087 13.6875 26.4375 C17.77011906 34.49386829 21.26880857 42.64483914 24.56738281 51.0480957 C26.72544628 56.473793 29.15417408 61.74819017 31.7277832 66.98876953 C33.33168454 70.31025256 34.46874082 73.34328094 35 77 C35.66 77 36.32 77 37 77 C37.67305018 78.60149886 38.33822227 80.20631029 39 81.8125 C39.37125 82.70582031 39.7425 83.59914063 40.125 84.51953125 C41 87 41 87 41 90 C41.99 90.495 41.99 90.495 43 91 C42.32453125 91.06058594 41.6490625 91.12117188 40.953125 91.18359375 C39.61507812 91.30927734 39.61507812 91.30927734 38.25 91.4375 C37.36828125 91.51871094 36.4865625 91.59992188 35.578125 91.68359375 C33.05643282 91.93137318 33.05643282 91.93137318 30.890625 92.5703125 C27.51187548 93.33821012 25.13474834 92.28748592 22 91 C17.22681263 85.52487331 14.62103496 78.10827181 11.9765625 71.40625 C10.81996729 68.55639941 9.42975139 65.88003487 8 63.16015625 C7 61 7 61 6.06640625 58.125 C4.59384443 53.80980054 2.45960678 49.92937522 0.33984375 45.90234375 C-1.65902008 41.57244338 -2.14949809 38.91193836 -1.375 34.1875 C-0.77847779 30.27373235 -1.78049707 27.96735674 -3.359375 24.3359375 C-4.72911166 19.34140994 -3.63799809 14.0653182 -3 9 C-2.88591797 7.85144531 -2.88591797 7.85144531 -2.76953125 6.6796875 C-2.42414671 3.56470994 -2.27733211 2.27733211 0 0 Z " fill="#00E1D7" transform="translate(656,162)"/>
<path d="M0 0 C0 22.11 0 44.22 0 67 C-5.61 67 -11.22 67 -17 67 C-16.505 37.3 -16.505 37.3 -16 7 C-13.69 6.01 -11.38 5.02 -9 4 C-7.66209359 3.00612666 -6.32781878 2.0073108 -5 1 C-3.28626887 0.46139879 -1.79759634 0 0 0 Z " fill="#00D4CB" transform="translate(558,186)"/>
<path d="M0 0 C0.66 0 1.32 0 2 0 C2.13526139 2.24834496 2.23210804 4.49902514 2.3125 6.75 C2.37050781 8.00296875 2.42851563 9.2559375 2.48828125 10.546875 C2 14 2 14 -0.44921875 16.296875 C-1.29097656 16.85890625 -2.13273437 17.4209375 -3 18 C-4.15521502 20.47130918 -4.15521502 20.47130918 -5 23 C-5.53625 23.66 -6.0725 24.32 -6.625 25 C-8.1531601 26.95729051 -8.1531601 26.95729051 -8.5625 29.5 C-8.20925106 32.35208767 -8.20925106 32.35208767 -5 34.1875 C-4.01 34.785625 -3.02 35.38375 -2 36 C-2 36.66 -2 37.32 -2 38 C-13.63656764 44.23387552 -26.45559691 46.30839847 -39.4375 42.875 C-46.15986932 40.48306083 -52.27064896 36.34622291 -57 31 C-55.4373676 27.16444775 -52.93550032 24.86390275 -50 22 C-48.97186389 20.68824014 -47.95915568 19.3630107 -47 18 C-44.03 18.99 -41.06 19.98 -38 21 C-38 21.66 -38 22.32 -38 23 C-22.38568002 24.66124183 -22.38568002 24.66124183 -8.6875 17.8125 C-3.37927051 12.80034706 -0.72797283 7.27972834 0 0 Z " fill="#00968F" transform="translate(92,211)"/>
<path d="M0 0 C6.51445205 -0.0505939 13.02885368 -0.08568856 19.54345703 -0.10986328 C21.76092421 -0.11993825 23.97837805 -0.13359859 26.19580078 -0.15087891 C29.37796312 -0.17506163 32.55995024 -0.18646797 35.7421875 -0.1953125 C37.23599442 -0.21079636 37.23599442 -0.21079636 38.75997925 -0.22659302 C40.14118454 -0.22681961 40.14118454 -0.22681961 41.55029297 -0.22705078 C42.3630368 -0.231492 43.17578064 -0.23593323 44.01315308 -0.24050903 C46 0 46 0 48 2 C48.14507695 4.74485593 48.18652423 7.38480543 48.125 10.125 C48.11597656 10.87910156 48.10695313 11.63320312 48.09765625 12.41015625 C48.0740687 14.27357254 48.03819719 16.13682593 48 18 C43.55263258 18.09932276 39.10586287 18.17168003 34.65771484 18.21972656 C33.14653264 18.23976791 31.63542728 18.26700905 30.12451172 18.30175781 C27.94479357 18.35061109 25.76610569 18.37304224 23.5859375 18.390625 C22.2767334 18.41157227 20.9675293 18.43251953 19.61865234 18.45410156 C15.41824106 17.92699557 13.39651267 16.43305271 10 14 C6.29462195 14.06388583 3.98282035 14.20740294 1.0625 16.5625 C-2.18061825 18.82285514 -5.11279434 18.19436028 -9 18 C-9.30859375 15.79296875 -9.30859375 15.79296875 -9 13 C-6.84765625 10.61328125 -6.84765625 10.61328125 -4.0625 8.3125 C-0.52719654 5.55993989 -0.52719654 5.55993989 2 2 C1.34 1.34 0.68 0.68 0 0 Z " fill="#00D4CB" transform="translate(543,144)"/>
<path d="M0 0 C0.94230469 -0.01611328 1.88460938 -0.03222656 2.85546875 -0.04882812 C9.16950587 -0.05319468 14.27913599 0.96437052 20.125 3.3125 C21.300625 3.745625 22.47625 4.17875 23.6875 4.625 C27.92685255 6.7061367 31.45341483 9.36569528 35.125 12.3125 C32.30661975 18.37201754 27.21023035 22.17335901 22.125 26.3125 C21.2896875 25.69761719 21.2896875 25.69761719 20.4375 25.0703125 C15.35444663 21.48126468 11.25133446 19.42637899 5.125 18.3125 C5.125 17.6525 5.125 16.9925 5.125 16.3125 C4.52961426 16.32297363 3.93422852 16.33344727 3.32080078 16.34423828 C0.63057657 16.38573949 -2.05958037 16.41180704 -4.75 16.4375 C-6.15572266 16.46263672 -6.15572266 16.46263672 -7.58984375 16.48828125 C-8.48574219 16.49472656 -9.38164062 16.50117188 -10.3046875 16.5078125 C-11.13210449 16.51828613 -11.95952148 16.52875977 -12.81201172 16.53955078 C-14.875 16.3125 -14.875 16.3125 -16.875 14.3125 C-17.08858801 10.46791573 -17.05381287 6.99629022 -15.875 3.3125 C-16.535 2.9825 -17.195 2.6525 -17.875 2.3125 C-11.8558562 0.21997217 -6.3432338 -0.02151708 0 0 Z " fill="#00CBC3" transform="translate(467.875,141.6875)"/>
<path d="M0 0 C3.59112874 1.10496269 6.9734099 2.42005867 10.375 4 C17.41862111 7.16196057 23.31780191 8.13245169 31 8 C31.66 8.33 32.32 8.66 33 9 C33.88671875 11.80078125 33.88671875 11.80078125 34.6875 15.3125 C34.95949219 16.46363281 35.23148437 17.61476562 35.51171875 18.80078125 C35.95579704 21.7103822 35.99842122 23.28617052 35 26 C17.93526569 26.61556156 2.01918844 23.67353589 -11 12 C-7.49102731 7.81576108 -3.91939465 3.80411834 0 0 Z " fill="#00C4BC" transform="translate(445,229)"/>
<path d="M0 0 C-0.58984375 2.78515625 -0.58984375 2.78515625 -2 6 C-4.94140625 7.87109375 -4.94140625 7.87109375 -8.5625 9.4375 C-19.09603626 14.29282288 -26.25362295 20.48701657 -33 30 C-33.4846875 30.67417969 -33.969375 31.34835938 -34.46875 32.04296875 C-43.69946644 46.59260412 -43.08081521 64.7901723 -40 81 C-39.80307361 82.37368164 -39.61382564 83.74852242 -39.4375 85.125 C-39.16069037 87.9349229 -39.16069037 87.9349229 -38 90 C-39.98 90.99 -39.98 90.99 -42 92 C-49.80651147 73.83255283 -51.00440369 56.73917334 -44.19140625 37.80859375 C-42.24404389 33.21792642 -39.8104047 29.11064013 -37 25 C-36.47535156 24.22785156 -35.95070313 23.45570313 -35.41015625 22.66015625 C-27.87441061 12.28742402 -13.46223679 0 0 0 Z " fill="#00D0C7" transform="translate(621,151)"/>
<path d="M0 0 C1.41435984 0.02875509 2.82859677 0.06398446 4.24267578 0.10424805 C5.36187912 0.13254951 5.36187912 0.13254951 6.50369263 0.16142273 C8.08586911 0.20338088 9.66797374 0.24812568 11.25 0.29541016 C13.67058977 0.36546327 16.0912023 0.41987899 18.51220703 0.47338867 C20.04739025 0.51604879 21.58254798 0.55963822 23.11767578 0.60424805 C23.84276337 0.61893631 24.56785095 0.63362457 25.31491089 0.64875793 C28.99319211 0.77420423 30.6741056 0.96087834 33.81298828 3.0534668 C31.05603906 6.42622942 28.49176736 9.54061149 25.00048828 12.1784668 C22.40908746 14.3996675 22.0913343 15.71331463 21.81298828 19.0534668 C24.12298828 19.0534668 26.43298828 19.0534668 28.81298828 19.0534668 C28.15298828 20.0434668 27.49298828 21.0334668 26.81298828 22.0534668 C26.81298828 21.3934668 26.81298828 20.7334668 26.81298828 20.0534668 C16.91298828 20.0534668 7.01298828 20.0534668 -3.18701172 20.0534668 C-4.83540116 16.75668792 -4.3297391 13.11030635 -4.31201172 9.4909668 C-4.31587891 8.69754883 -4.31974609 7.90413086 -4.32373047 7.08666992 C-4.31175039 0.07233594 -4.31175039 0.07233594 0 0 Z " fill="#00CBC3" transform="translate(512.18701171875,142.946533203125)"/>
<path d="M0 0 C0 4.65515979 -2.21457942 7.15089667 -5.3125 10.5 C-6.199375 11.325 -7.08625 12.15 -8 13 C-8.86625 13.825 -9.7325 14.65 -10.625 15.5 C-16.92445677 20.63048541 -24.88747946 23.80213365 -33 24 C-34.60488281 24.05800781 -34.60488281 24.05800781 -36.2421875 24.1171875 C-46.22634798 24.31731544 -46.22634798 24.31731544 -50 22 C-45.05882353 8.58823529 -45.05882353 8.58823529 -42 4 C-39.171875 3.5234375 -39.171875 3.5234375 -35.75 3.375 C-31.41839649 3.16540628 -27.26717994 2.78878175 -23 2 C-21.68 5.3 -20.36 8.6 -19 12 C-17.04081032 11.94008594 -15.08248471 11.85132862 -13.125 11.75 C-12.03445313 11.70359375 -10.94390625 11.6571875 -9.8203125 11.609375 C-6.90166388 11.31233084 -6.90166388 11.31233084 -5.67578125 9.1171875 C-5.45277344 8.41851562 -5.22976563 7.71984375 -5 7 C-3.28125 2.1875 -3.28125 2.1875 0 0 Z " fill="#00BCB3" transform="translate(418,199)"/>
<path d="M0 0 C3.25 -0.3125 3.25 -0.3125 7 0 C9.25 2.375 9.25 2.375 11 5 C11.99 5.66 12.98 6.32 14 7 C14 7.66 14 8.32 14 9 C14.66 9.0825 15.32 9.165 16 9.25 C18.61005616 9.90251404 20.40110726 10.6441802 22.75 11.875 C36.30026928 18.75013663 52.26835565 19.84469271 67 16 C75.95380435 13.04502239 83.55182069 8.65739187 90.8125 2.6875 C93.01251962 0.990342 94.23836111 0.17817025 97 0 C99.25 0.9375 99.25 0.9375 101 2 C100.34 2 99.68 2 99 2 C98.78085937 2.56976563 98.56171875 3.13953125 98.3359375 3.7265625 C92.49096661 13.67326734 76.34582376 20.61602822 65.75 23.46875 C47.48759418 26.99671476 29.82283364 23.7219469 13.98046875 14.07421875 C8.90485006 10.54190745 4.21261491 6.53602432 0 2 C0 1.34 0 0.68 0 0 Z " fill="#00D9D0" transform="translate(589,256)"/>
<path d="M0 0 C0.66 0.66 1.32 1.32 2 2 C2.94875 1.67 3.8975 1.34 4.875 1 C9.55447256 -0.3644458 14.16823759 -0.17499341 19 0 C19.66958532 7.70023117 17.0300568 13.80112262 12.9375 20.25 C7.6498484 25.99602388 -0.26056817 29.65602525 -8 30 C-8.50588147 28.08487728 -9.00448391 26.16783078 -9.5 24.25 C-9.7784375 23.18265625 -10.056875 22.1153125 -10.34375 21.015625 C-11 18 -11 18 -11 14 C-11.66 13.67 -12.32 13.34 -13 13 C-12.31292969 12.731875 -11.62585938 12.46375 -10.91796875 12.1875 C-5.54411225 9.98753788 -5.54411225 9.98753788 -1.66796875 5.88671875 C-0.75070727 3.47240586 -0.75070727 3.47240586 0 0 Z " fill="#00CCC4" transform="translate(489,224)"/>
<path d="M0 0 C6.50605432 0.42430789 11.33406064 2.88947586 17 6 C18.546875 6.8353125 18.546875 6.8353125 20.125 7.6875 C20.74375 8.120625 21.3625 8.55375 22 9 C22 9.66 22 10.32 22 11 C23.65 11.66 25.3 12.32 27 13 C27 13.66 27 14.32 27 15 C27.99 15.33 28.98 15.66 30 16 C44.03345347 30.49579593 50.64904926 46.82242806 50.33886719 66.76000977 C50.15696359 72.02312557 49.64564579 76.97330012 48 82 C47.73574219 82.8353125 47.47148438 83.670625 47.19921875 84.53125 C46.4935586 86.69839585 45.76169035 88.8520332 45 91 C44.01 91 43.02 91 42 91 C40.88792691 85.55084184 41.48681166 82.27406886 43 77 C45.09109215 60.91208138 42.56864302 47.69019893 36 33 C35.67 32.23816406 35.34 31.47632813 35 30.69140625 C33.96665441 28.66437452 33.96665441 28.66437452 31 27 C30.67 26.01 30.34 25.02 30 24 C22.5991489 15.40546324 11.99999898 9.99999949 2 5 C1.27840576 3.35636866 0.60648579 1.68949614 0 0 Z " fill="#00E2D7" transform="translate(655,150)"/>
<path d="M0 0 C0.99 0.33 1.98 0.66 3 1 C2.98259766 1.95712891 2.98259766 1.95712891 2.96484375 2.93359375 C2.95582031 3.75988281 2.94679688 4.58617187 2.9375 5.4375 C2.92589844 6.26121094 2.91429687 7.08492187 2.90234375 7.93359375 C2.76732652 9.99163938 2.76732652 9.99163938 4 11 C4.125 13.5 4.125 13.5 4 16 C3.67 16.33 3.34 16.66 3 17 C2.83333333 19.5 2.83333333 19.5 3 22 C3.33 22.33 3.66 22.66 4 23 C4.10070248 25.92629572 4.13867335 28.82390339 4.125 31.75 C4.12886719 32.56210938 4.13273437 33.37421875 4.13671875 34.2109375 C4.13005578 38.30200222 3.8688584 41.98745392 3 46 C3.33 46.33 3.66 46.66 4 47 C4.09873816 48.99799572 4.12971799 50.99957158 4.125 53 C4.12757813 54.093125 4.13015625 55.18625 4.1328125 56.3125 C4 59 4 59 3 60 C2.9020943 61.49738124 2.87025136 62.99942892 2.875 64.5 C2.87242187 65.3146875 2.86984375 66.129375 2.8671875 66.96875 C2.7754822 68.99530377 2.7754822 68.99530377 4 70 C4.14775904 72.54484488 4.23501181 75.06601298 4.28125 77.61328125 C4.29965942 78.37924118 4.31806885 79.14520111 4.33703613 79.93437195 C4.39596127 82.39366758 4.44866619 84.8530349 4.5 87.3125 C4.5677566 90.53790389 4.64152373 93.76309187 4.71875 96.98828125 C4.73232544 97.73008133 4.74590088 98.47188141 4.7598877 99.23616028 C4.84093041 102.61600761 4.95921874 105.76546674 6 109 C7.32 109.33 8.64 109.66 10 110 C8.35425434 110.02688151 6.70838587 110.04634123 5.0625 110.0625 C4.14597656 110.07410156 3.22945313 110.08570313 2.28515625 110.09765625 C0 110 0 110 -1 109 C-1.0975801 107.61314081 -1.12631636 106.22135763 -1.12698364 104.83106995 C-1.12980347 103.93227112 -1.13262329 103.03347229 -1.13552856 102.10743713 C-1.13350433 101.11364548 -1.1314801 100.11985382 -1.12939453 99.09594727 C-1.13114685 98.05538177 -1.13289917 97.01481628 -1.13470459 95.94271851 C-1.13912578 92.48393106 -1.13618396 89.02519426 -1.1328125 85.56640625 C-1.13348551 83.17366018 -1.13445552 80.78091417 -1.13571167 78.38816833 C-1.13718905 73.36513622 -1.135033 68.34212185 -1.13037109 63.3190918 C-1.12467686 56.86793128 -1.12795064 50.4168124 -1.13394356 43.96565342 C-1.13755071 39.02186263 -1.13640981 34.07808177 -1.13381577 29.1342907 C-1.13314677 26.75514661 -1.13397398 24.37600164 -1.13629532 21.9968586 C-1.13882402 18.67569708 -1.13497798 15.35460369 -1.12939453 12.03344727 C-1.13141876 11.04167984 -1.13344299 10.04991241 -1.13552856 9.02809143 C-1.13270874 8.12647278 -1.12988892 7.22485413 -1.12698364 6.2959137 C-1.12660662 5.51000131 -1.12622959 4.72408892 -1.12584114 3.914361 C-1 2 -1 2 0 0 Z " fill="#00A9A0" transform="translate(343,143)"/>
<path d="M0 0 C10.42513615 3.31497643 18.30257371 7.25043752 25 16 C25.51046875 16.46148437 26.0209375 16.92296875 26.546875 17.3984375 C28.49808304 19.54896249 29.22128603 21.70914868 30.1875 24.4375 C30.53167969 25.38496094 30.87585938 26.33242187 31.23046875 27.30859375 C32 30 32 30 32 34 C30.44539063 34.19916016 30.44539063 34.19916016 28.859375 34.40234375 C27.48956735 34.58060639 26.11977656 34.75899862 24.75 34.9375 C23.72712891 35.06801758 23.72712891 35.06801758 22.68359375 35.20117188 C19.37486655 35.63484 16.24425941 36.18893515 13 37 C11.68 33.04 10.36 29.08 9 25 C10.98 24.34 12.96 23.68 15 23 C14.34455561 15.95397278 11.08794369 12.88038644 5.875 8.5 C2.83937392 5.92141056 0.9679509 3.99279745 0 0 Z " fill="#00C5BD" transform="translate(477,190)"/>
<path d="M0 0 C0 0.66 0 1.32 0 2 C0.66 2 1.32 2 2 2 C2.25 9.625 2.25 9.625 0 13 C0.185625 13.99 0.37125 14.98 0.5625 16 C0.706875 16.99 0.85125 17.98 1 19 C-0.25 20.5 -0.25 20.5 -2 22 C-3.04622875 23.97620986 -4.05439935 25.9737129 -5 28 C-6.32 27.67 -7.64 27.34 -9 27 C-11.29275811 19.13911504 -12.07471986 11.11096635 -13 3 C-12.34 3 -11.68 3 -11 3 C-10.67 1.02 -10.34 -0.96 -10 -3 C-5.70389703 -4.98281675 -3.41832937 -2.71912563 0 0 Z " fill="#00F8EE" transform="translate(789,173)"/>
<path d="M0 0 C3.25 -0.3125 3.25 -0.3125 7 0 C9.25 2.375 9.25 2.375 11 5 C11.99 5.66 12.98 6.32 14 7 C14 7.66 14 8.32 14 9 C14.66 9.0825 15.32 9.165 16 9.25 C18.61005616 9.90251404 20.40110726 10.6441802 22.75 11.875 C30.33725003 15.78229168 37.49255126 17.48493525 46 18 C46 18.66 46 19.32 46 20 C45.01 20.33 44.02 20.66 43 21 C43 21.99 43 22.98 43 24 C26.12288017 22.70176001 11.39380441 14.26852561 0 2 C0 1.34 0 0.68 0 0 Z " fill="#00D4CB" transform="translate(589,256)"/>
<path d="M0 0 C2.4375 0.625 2.4375 0.625 5 2 C7.95855161 11.51066105 7.07444351 25.60897256 4 35 C3.60361328 36.25296875 3.60361328 36.25296875 3.19921875 37.53125 C2.4935586 39.69839585 1.76169035 41.8520332 1 44 C0.01 44 -0.98 44 -2 44 C-2.78296017 40.16349518 -3.15058725 37.52580048 -2.0625 33.7265625 C-0.96178357 29.86596151 -0.59310889 26.44020195 -0.375 22.4375 C-0.31807983 21.41172852 -0.31807983 21.41172852 -0.26000977 20.36523438 C0.08489016 13.57672794 0.0955713 6.79618107 0 0 Z " fill="#00DCD1" transform="translate(699,197)"/>
<path d="M0 0 C0.66 0 1.32 0 2 0 C3.85661577 5.5698473 1.07217613 10.91545994 -1.1875 16.0625 C-3.06696254 20.58997853 -3.40061758 23.2979267 -2 28 C-1.34 28.33 -0.68 28.66 0 29 C-2.99531539 29.99843846 -4.17255732 30.00732761 -7.1875 29.5625 C-8.445625 29.376875 -9.70375 29.19125 -11 29 C-11.60666924 23.08497491 -9.56442014 19.15101105 -7 14 C-6.7107666 13.41460449 -6.4215332 12.82920898 -6.12353516 12.22607422 C-4.10378867 8.13975559 -2.0592907 4.06652068 0 0 Z " fill="#00D0C8" transform="translate(592,224)"/>
<path d="M0 0 C-0.57421875 2.7734375 -0.57421875 2.7734375 -2 6 C-4.33002469 7.49428706 -6.30336663 8.56473031 -8.8125 9.625 C-12.41538481 11.22126244 -15.67308094 12.73754385 -18.7734375 15.2265625 C-21 17 -21 17 -23.8125 16.75 C-24.534375 16.5025 -25.25625 16.255 -26 16 C-25.6567218 13.15391165 -25.17450213 12.155113 -22.99609375 10.21875 C-7.78409091 0 -7.78409091 0 0 0 Z " fill="#00D2C9" transform="translate(621,151)"/>
<path d="M0 0 C7.85932613 6.70354288 11.72940242 15.9009399 13 26 C12.01 26 11.02 26 10 26 C10 26.99 10 27.98 10 29 C9.34 29 8.68 29 8 29 C7.60167969 27.84242188 7.20335937 26.68484375 6.79296875 25.4921875 C6.25802501 23.95305112 5.72285685 22.41399273 5.1875 20.875 C4.92646484 20.11445313 4.66542969 19.35390625 4.39648438 18.5703125 C1.76813549 10.19240803 1.76813549 10.19240803 -4 4 C-4 3.34 -4 2.68 -4 2 C-2.68 1.34 -1.36 0.68 0 0 Z " fill="#00DED3" transform="translate(690,173)"/>
<path d="M0 0 C-0.99 0.495 -0.99 0.495 -2 1 C-2.25910156 1.59167969 -2.51820313 2.18335938 -2.78515625 2.79296875 C-4.45405823 5.82489678 -6.65012089 7.28767082 -9.4375 9.3125 C-10.40558594 10.03050781 -11.37367188 10.74851562 -12.37109375 11.48828125 C-13.23863281 11.98714844 -14.10617187 12.48601562 -15 13 C-15.99 12.67 -16.98 12.34 -18 12 C-18 11.34 -18 10.68 -18 10 C-18.66 9.67 -19.32 9.34 -20 9 C-6.5689838 -1.68043772 -6.5689838 -1.68043772 0 0 Z " fill="#00DFD5" transform="translate(690,257)"/>
<path d="M0 0 C5.75863538 0.37556318 9.8834898 2.23394547 14.9609375 4.94140625 C16.76500778 6.07679396 16.76500778 6.07679396 18 6 C18 8.31 18 10.62 18 13 C1.75 4.875 1.75 4.875 0 0 Z " fill="#00D3C9" transform="translate(655,150)"/>
<path d="M0 0 C2.475 0.99 2.475 0.99 5 2 C6.89993816 7.55366538 6.08483154 14.17490094 6 20 C5.01 19.67 4.02 19.34 3 19 C3 16.69 3 14.38 3 12 C2.34 12 1.68 12 1 12 C0.67 12.66 0.34 13.32 0 14 C0 9.38 0 4.76 0 0 Z " fill="#00E5DA" transform="translate(699,197)"/>
<path d="M0 0 C2.97 0.33 5.94 0.66 9 1 C7.85598364 5.57606545 6.18597856 7.58645154 3 11 C2.01 11.33 1.02 11.66 0 12 C0 8.04 0 4.08 0 0 Z " fill="#00D5CC" transform="translate(542,172)"/>
<path d="M0 0 C0.66 0 1.32 0 2 0 C2 0.66 2 1.32 2 2 C2.66 2.33 3.32 2.66 4 3 C3.34 3 2.68 3 2 3 C1.67 8.28 1.34 13.56 1 19 C10.9 19 20.8 19 31 19 C29 21 29 21 26.11083984 21.13525391 C24.30413818 21.05670166 24.30413818 21.05670166 22.4609375 20.9765625 C21.15898438 20.925 19.85703125 20.8734375 18.515625 20.8203125 C17.13540621 20.75543042 15.75519798 20.69032333 14.375 20.625 C12.98701851 20.56676301 11.5989975 20.50945967 10.2109375 20.453125 C6.80679074 20.31128555 3.40334154 20.15983765 0 20 C-1.24674334 16.25976998 -1.14552755 12.7683914 -1.125 8.875 C-1.12886719 8.13378906 -1.13273438 7.39257812 -1.13671875 6.62890625 C-1.1266598 1.1266598 -1.1266598 1.1266598 0 0 Z " fill="#00DFD6" transform="translate(796,143)"/>
<path d="M0 0 C1.65 0.33 3.3 0.66 5 1 C4.68950274 2.43793392 4.3765224 3.8753318 4.0625 5.3125 C3.88847656 6.11300781 3.71445312 6.91351563 3.53515625 7.73828125 C3 10 3 10 2 13 C1.01 13 0.02 13 -1 13 C-2.0070238 7.96488101 -1.97387813 4.76052962 0 0 Z " fill="#00E3DA" transform="translate(698,228)"/>
<path d="M0 0 C0.33 1.65 0.66 3.3 1 5 C-1.1875 7.0625 -1.1875 7.0625 -4 9 C-6.8125 8.75 -6.8125 8.75 -9 8 C-8.66410006 4.86493389 -7.97334828 3.974751 -5.625 1.75 C-3 0 -3 0 0 0 Z " fill="#00D9CF" transform="translate(604,159)"/>
<path d="M0 0 C3.25 -0.3125 3.25 -0.3125 7 0 C9.4375 2.375 9.4375 2.375 11 5 C11 5.66 11 6.32 11 7 C10.34 7 9.68 7 9 7 C8.67 7.66 8.34 8.32 8 9 C6.66079162 7.88200014 5.32877444 6.75538103 4 5.625 C2.88625 4.68527344 2.88625 4.68527344 1.75 3.7265625 C1.1725 3.15679687 0.595 2.58703125 0 2 C0 1.34 0 0.68 0 0 Z " fill="#00CAC1" transform="translate(589,256)"/>
<path d="M0 0 C6.75 1.625 6.75 1.625 9 5 C4.38 5 -0.24 5 -5 5 C-3.35 3.35 -1.7 1.7 0 0 Z " fill="#00E5DA" transform="translate(721,248)"/>
<path d="M0 0 C0.99 0.33 1.98 0.66 3 1 C2.98259766 1.95712891 2.98259766 1.95712891 2.96484375 2.93359375 C2.95582031 3.75988281 2.94679688 4.58617187 2.9375 5.4375 C2.92589844 6.26121094 2.91429687 7.08492187 2.90234375 7.93359375 C2.76732652 9.99163938 2.76732652 9.99163938 4 11 C4.34892324 15.07077118 3.41404314 18.19975907 2 22 C1.67 22 1.34 22 1 22 C0.67 14.74 0.34 7.48 0 0 Z " fill="#00B5AC" transform="translate(343,143)"/>
<path d="M0 0 C1.65 1.65 3.3 3.3 5 5 C4 7 4 7 2.1875 7.875 C0 8 0 8 -2.25 6.1875 C-4 4 -4 4 -4 2 C-2.68 1.34 -1.36 0.68 0 0 Z " fill="#00DCD2" transform="translate(690,173)"/>
<path d="M0 0 C0 4.54960762 -2.12127294 7.07105996 -5.1875 10.3125 C-6.0846875 11.1478125 -6.0846875 11.1478125 -7 12 C-6.29211272 8.31898615 -4.8397605 5.25496089 -3 2 C-2.01 1.34 -1.02 0.68 0 0 Z " fill="#00BFB6" transform="translate(418,199)"/>
<path d="M0 0 C2.31 0 4.62 0 7 0 C7 0.33 7 0.66 7 1 C4.69 1 2.38 1 0 1 C0 0.67 0 0.34 0 0 Z " fill="#000102" transform="translate(741,223)"/>
<path d="M0 0 C0.66 0.33 1.32 0.66 2 1 C0.68 1.33 -0.64 1.66 -2 2 C-1.34 1.34 -0.68 0.68 0 0 Z " fill="#003C39" transform="translate(596,253)"/>
<path d="M0 0 C0.33 0 0.66 0 1 0 C1 1.65 1 3.3 1 5 C0.67 5 0.34 5 0 5 C0 3.35 0 1.7 0 0 Z " fill="#00534E" transform="translate(705,223)"/>
<path d="M0 0 C0.33 0 0.66 0 1 0 C1 1.65 1 3.3 1 5 C0.67 5 0.34 5 0 5 C0 3.35 0 1.7 0 0 Z " fill="#000102" transform="translate(579,207)"/>
<path d="M0 0 C0.33 0 0.66 0 1 0 C1 1.65 1 3.3 1 5 C0.67 5 0.34 5 0 5 C0 3.35 0 1.7 0 0 Z " fill="#003C39" transform="translate(119,203)"/>
<path d="M0 0 C1 4 1 4 1 4 Z " fill="#005854" transform="translate(705,201)"/>
<path d="M0 0 C1 4 1 4 1 4 Z " fill="#000102" transform="translate(792,174)"/>
<path d="M0 0 C1 4 1 4 1 4 Z " fill="#005551" transform="translate(119,151)"/>
<path d="M0 0 C4 1 4 1 4 1 Z " fill="#006C66" transform="translate(314,142)"/>
<path d="M0 0 C4 1 4 1 4 1 Z " fill="#00534E" transform="translate(225,142)"/>
<path d="M0 0 C4 1 4 1 4 1 Z " fill="#00534E" transform="translate(201,142)"/>
<path d="" fill="#003C39" transform="translate(0,0)"/>
<path d="M0 0 C0.99 0.495 0.99 0.495 2 1 C1.01 1.495 1.01 1.495 0 2 C0 1.34 0 0.68 0 0 Z " fill="#009790" transform="translate(42,230)"/>
<path d="M0 0 C3 1 3 1 3 1 Z " fill="#002826" transform="translate(369,223)"/>
<path d="" fill="#000102" transform="translate(0,0)"/>
<path d="" fill="#000102" transform="translate(0,0)"/>
<path d="" fill="#000102" transform="translate(0,0)"/>
<path d="" fill="#00120F" transform="translate(0,0)"/>
<path d="M0 0 C3 1 3 1 3 1 Z " fill="#008D87" transform="translate(231,142)"/>
<path d="M0 0 C3 1 3 1 3 1 Z " fill="#00534E" transform="translate(99,142)"/>
<path d="" fill="#000102" transform="translate(0,0)"/>
<path d="" fill="#00847D" transform="translate(0,0)"/>
<path d="" fill="#003C39" transform="translate(0,0)"/>
<path d="" fill="#001413" transform="translate(0,0)"/>
<path d="" fill="#00534E" transform="translate(0,0)"/>
<path d="" fill="#006A66" transform="translate(0,0)"/>
<path d="M0 0 C2 1 2 1 2 1 Z " fill="#006A66" transform="translate(631,142)"/>
<path d="M0 0 C2 1 2 1 2 1 Z " fill="#006A66" transform="translate(352,142)"/>
<path d="M0 0 C2 1 2 1 2 1 Z " fill="#00534E" transform="translate(235,142)"/>
<path d="M0 0 C2 1 2 1 2 1 Z " fill="#00534E" transform="translate(129,142)"/>
<path d="" fill="#003C39" transform="translate(0,0)"/>
<path d="" fill="#000102" transform="translate(0,0)"/>
<path d="" fill="#000102" transform="translate(0,0)"/>
<path d="" fill="#000102" transform="translate(0,0)"/>
<path d="" fill="#000102" transform="translate(0,0)"/>
<path d="" fill="#003C39" transform="translate(0,0)"/>
<path d="" fill="#000102" transform="translate(0,0)"/>
<path d="" fill="#00534E" transform="translate(0,0)"/>
<path d="" fill="#000102" transform="translate(0,0)"/>
<path d="" fill="#003C39" transform="translate(0,0)"/>
<path d="" fill="#003C39" transform="translate(0,0)"/>
<path d="" fill="#000102" transform="translate(0,0)"/>
<path d="" fill="#000102" transform="translate(0,0)"/>
<path d="" fill="#000102" transform="translate(0,0)"/>
<path d="" fill="#003C39" transform="translate(0,0)"/>
<path d="" fill="#002824" transform="translate(0,0)"/>
<path d="" fill="#00847D" transform="translate(0,0)"/>
<path d="" fill="#003C39" transform="translate(0,0)"/>
<path d="" fill="#00534E" transform="translate(0,0)"/>
<path d="" fill="#00EDE4" transform="translate(0,0)"/>
<path d="" fill="#003C39" transform="translate(0,0)"/>
<path d="" fill="#003C39" transform="translate(0,0)"/>
<path d="" fill="#003C39" transform="translate(0,0)"/>
<path d="" fill="#000102" transform="translate(0,0)"/>
<path d="" fill="#00534E" transform="translate(0,0)"/>
<path d="" fill="#003C39" transform="translate(0,0)"/>
<path d="" fill="#000102" transform="translate(0,0)"/>
<path d="" fill="#003C39" transform="translate(0,0)"/>
<path d="" fill="#00534E" transform="translate(0,0)"/>
<path d="" fill="#006A66" transform="translate(0,0)"/>
<path d="" fill="#003C39" transform="translate(0,0)"/>
<path d="" fill="#00534E" transform="translate(0,0)"/>
<path d="" fill="#000102" transform="translate(0,0)"/>
<path d="" fill="#00534E" transform="translate(0,0)"/>
<path d="" fill="#00534E" transform="translate(0,0)"/>
<path d="" fill="#000102" transform="translate(0,0)"/>
<path d="" fill="#00534E" transform="translate(0,0)"/>
<path d="" fill="#000102" transform="translate(0,0)"/>
<path d="" fill="#00534E" transform="translate(0,0)"/>
<path d="" fill="#000102" transform="translate(0,0)"/>
<path d="" fill="#00120F" transform="translate(0,0)"/>
<path d="" fill="#000102" transform="translate(0,0)"/>
<path d="" fill="#002824" transform="translate(0,0)"/>
<path d="" fill="#000102" transform="translate(0,0)"/>
<path d="" fill="#000102" transform="translate(0,0)"/>
<path d="" fill="#000102" transform="translate(0,0)"/>
<path d="" fill="#002824" transform="translate(0,0)"/>
<path d="" fill="#000102" transform="translate(0,0)"/>
<path d="" fill="#000102" transform="translate(0,0)"/>
<path d="" fill="#000102" transform="translate(0,0)"/>
<path d="" fill="#000102" transform="translate(0,0)"/>
<path d="" fill="#000102" transform="translate(0,0)"/>
<path d="" fill="#000102" transform="translate(0,0)"/>
<path d="" fill="#000102" transform="translate(0,0)"/>
<path d="" fill="#000102" transform="translate(0,0)"/>
<path d="" fill="#000102" transform="translate(0,0)"/>
<path d="" fill="#000102" transform="translate(0,0)"/>
<path d="" fill="#000102" transform="translate(0,0)"/>
<path d="" fill="#000102" transform="translate(0,0)"/>
<path d="" fill="#000102" transform="translate(0,0)"/>
<path d="" fill="#000102" transform="translate(0,0)"/>
<path d="" fill="#00120F" transform="translate(0,0)"/>
<path d="" fill="#000102" transform="translate(0,0)"/>
<path d="" fill="#00120F" transform="translate(0,0)"/>
<path d="" fill="#006A66" transform="translate(0,0)"/>
<path d="" fill="#000102" transform="translate(0,0)"/>
<path d="" fill="#000102" transform="translate(0,0)"/>
<path d="" fill="#003C39" transform="translate(0,0)"/>
<path d="" fill="#000102" transform="translate(0,0)"/>
<path d="" fill="#000102" transform="translate(0,0)"/>
<path d="" fill="#000102" transform="translate(0,0)"/>
<path d="" fill="#00534E" transform="translate(0,0)"/>
<path d="" fill="#000102" transform="translate(0,0)"/>
<path d="" fill="#003C39" transform="translate(0,0)"/>
<path d="" fill="#000102" transform="translate(0,0)"/>
<path d="" fill="#002824" transform="translate(0,0)"/>
<path d="" fill="#002824" transform="translate(0,0)"/>
<path d="" fill="#002824" transform="translate(0,0)"/>
<path d="" fill="#00847D" transform="translate(0,0)"/>
<path d="" fill="#000102" transform="translate(0,0)"/>
<path d="" fill="#000102" transform="translate(0,0)"/>
<path d="" fill="#00534E" transform="translate(0,0)"/>
<path d="" fill="#000102" transform="translate(0,0)"/>
<path d="" fill="#00BFB6" transform="translate(0,0)"/>
<path d="" fill="#00534E" transform="translate(0,0)"/>
<path d="" fill="#00534E" transform="translate(0,0)"/>
<path d="" fill="#00534E" transform="translate(0,0)"/>
</svg>
